<svg id="Capa_1" data-name="Capa 1" xmlns="http://www.w3.org/2000/svg" viewBox="0 0 211.17 295.94"><defs><style>.cls-1{fill:#4caf50;}.cls-2{stroke:#388e3c;stroke-miterlimit:10;}</style></defs><path class="cls-1" d="M442.42,88.49a4.3,4.3,0,0,0-3.94-3c-165.79,0-183.73,77-183.73,110.05,0,42.93,29.19,71.77,72.63,71.77,54.87,0,66.37-58.47,72.54-89.89,6-32,20.49-61.18,41.57-83.77A5.19,5.19,0,0,0,442.42,88.49Z" transform="translate(-231.57 -85.53)"/><path class="cls-2" d="M232.09,378.13c-1-130.22,69.34-204.87,142.25-244.92a4.27,4.27,0,0,1,6,2.36,5.4,5.4,0,0,1-2.08,6.79h0c-73.64,40.45-132.39,103-133.92,233.21,0,0-2,10.22-12.25,2.56" transform="translate(-231.57 -85.53)"/></svg>