<svg id="Capa_1" data-name="Capa 1" xmlns="http://www.w3.org/2000/svg" viewBox="0 0 166.87 377.44"><defs><style>.cls-1{fill:#4caf50;}.cls-2{fill:#231f20;}</style></defs><path class="cls-1" d="M96.65,3.61A4.31,4.31,0,0,0,93,7c-30.38,163,42,194.72,74.51,200.78,42.2,7.87,75.91-15.54,83.87-58.25,10.06-53.94-45.31-75.95-75.07-87.78C146,50,119.93,30.35,101.59,5.48A5.2,5.2,0,0,0,96.65,3.61Z" transform="translate(-85.72 -3.54)"/><path class="cls-2" d="M232.09,378.13c-1-130.22-7.15-166.47-81.71-276.77,0,0,0-14.3,12.26-5.1,42.47,64,84.25,105.19,81.7,279.31,0,0-2,10.22-12.25,2.56" transform="translate(-85.72 -3.54)"/></svg>